<?xml version="1.0" standalone="no"?>
<!DOCTYPE svg PUBLIC "-//W3C//DTD SVG 20010904//EN"
 "http://www.w3.org/TR/2001/REC-SVG-20010904/DTD/svg10.dtd">
<svg version="1.0" xmlns="http://www.w3.org/2000/svg"
 width="72.000000pt" height="72.000000pt" viewBox="0 0 72.000000 72.000000"
 preserveAspectRatio="xMidYMid meet">
<metadata>
Created by potrace 1.11, written by Peter Selinger 2001-2013
</metadata>
<g transform="translate(0.000000,72.000000) scale(0.100000,-0.100000)"
fill="#000000" stroke="none">
<path d="M137 563 c-14 -14 -12 -20 19 -63 19 -26 44 -50 57 -54 12 -3 40 -23
62 -46 l39 -40 -39 -40 c-28 -28 -47 -40 -68 -40 -40 0 -87 -49 -87 -90 0 -42
47 -90 88 -90 43 0 81 34 88 80 4 26 18 50 44 75 43 42 60 39 60 -8 0 -25 12
-43 57 -89 32 -32 62 -58 68 -58 15 0 75 63 75 79 0 7 -23 37 -51 67 -42 43
-58 54 -83 54 -18 0 -37 5 -44 12 -19 19 53 88 91 88 38 0 87 49 87 86 l0 28
-34 -33 c-41 -40 -81 -38 -92 5 -5 20 0 33 27 60 l33 34 -28 0 c-37 0 -86 -49
-86 -87 0 -20 -11 -40 -38 -66 l-38 -37 -47 48 c-26 26 -47 53 -47 59 0 6 -22
27 -49 46 -44 32 -50 34 -64 20z m371 -346 c42 -43 53 -67 30 -67 -16 0 -98
81 -98 97 0 24 26 13 68 -30z m-263 8 c14 -13 25 -29 25 -35 0 -14 -46 -60
-60 -60 -14 0 -60 46 -60 60 0 6 11 22 25 35 13 14 29 25 35 25 6 0 22 -11 35
-25z"/>
</g>
</svg>
